<svg width="62" height="20" viewBox="0 0 62 20" fill="none" xmlns="http://www.w3.org/2000/svg">
<g clip-path="url(#clip0_3422_43806)">
<path d="M11.4788 5.1333H8.82101C8.82101 3.15734 7.70138 2.15369 5.68186 2.15369C3.99195 2.15369 2.94034 2.96393 2.94034 4.23419C2.94034 5.66127 4.01811 6.10037 6.51896 6.71197C9.4593 7.43335 11.9183 8.20178 11.9183 11.4898C11.9183 14.3858 9.5901 16.2676 6.07948 16.2676C2.30727 16.2676 0 14.3596 0 10.7841H2.69967C2.69967 13.0214 3.92917 14.093 6.10041 14.093C8.05191 14.093 9.19247 13.1939 9.19247 11.725C9.19247 10.1464 8.05191 9.79613 5.66093 9.20544C2.69967 8.46315 0.240668 7.74177 0.240668 4.47465C0.240668 1.81913 2.41191 0 5.72894 0C9.52731 0 11.4788 1.77731 11.4788 5.1333Z" fill="#141416"/>
<path d="M30.1672 9.08035V15.9439H27.6663V9.32081C27.6663 7.34485 26.8972 6.55552 25.6468 6.55552C24.1766 6.55552 23.2977 7.80486 23.2977 9.93241V15.9387H20.7968V9.05421C20.7968 7.47554 20.0957 6.55552 18.7982 6.55552C17.3071 6.55552 16.4491 7.82577 16.4491 9.97423V15.9387H13.9482V4.80434H16.3392V6.14255H16.3811C17.1711 5.06571 18.1599 4.54297 19.4731 4.54297C21.0113 4.54297 22.1937 5.24344 22.764 6.56074C23.575 5.29049 24.6527 4.54297 26.3426 4.54297C28.7127 4.54297 30.1619 6.07982 30.1619 9.08035" fill="#141416"/>
<path d="M43.1265 10.369C43.1265 13.9236 41.3267 16.2028 38.4962 16.2028C37.115 16.2028 35.8646 15.565 35.2263 14.4934H35.1844V19.9978H32.6836V4.80181H35.1217V6.33866H35.1635C35.8227 5.19909 37.0732 4.51953 38.4753 4.51953C41.3058 4.51953 43.1265 6.81958 43.1265 10.3742M35.0484 10.3742C35.0484 12.784 36.1262 14.2791 37.7481 14.2791C39.37 14.2791 40.5158 12.7422 40.5158 10.3742C40.5158 8.0062 39.438 6.46935 37.7481 6.46935C36.0582 6.46935 35.0484 7.93825 35.0484 10.3742Z" fill="#141416"/>
<path d="M47.6317 0.328125H45.1309V15.9423H47.6317V0.328125Z" fill="#141416"/>
<path d="M53.251 0.210938C51.446 0.210938 49.9863 1.66938 49.9863 3.47283C49.9863 5.27628 51.446 6.73472 53.251 6.73472V0.210938Z" fill="#141416"/>
<path d="M61.2501 3.47283C61.2501 1.66938 59.7904 0.210938 57.9854 0.210938C56.1804 0.210938 54.7207 1.66938 54.7207 3.47283C54.7207 5.27628 56.1804 6.73472 57.9854 6.73472C59.7904 6.73472 61.2501 5.27628 61.2501 3.47283Z" fill="#141416"/>
</g>
<defs>
<clipPath id="clip0_3422_43806">
<rect width="61.25" height="20" fill="white"/>
</clipPath>
</defs>
</svg>
